<svg xmlns="http://www.w3.org/2000/svg" viewBox="0 0 105.07 12.55"><defs><style>.cls-1{fill:#231815;}</style></defs><title>자산 1</title><g id="레이어_2" data-name="레이어 2"><g id="레이어_1-2" data-name="레이어 1"><path class="cls-1" d="M2.48,4.14V7.36a.62.62,0,0,0,.17.48A.77.77,0,0,0,3.19,8H4V9.41H2.92A1.86,1.86,0,0,1,.79,7.34V4.14H0V2.76H.79V1.12H2.48V2.76H4V4.14Z"/><path class="cls-1" d="M10.27,3a2.3,2.3,0,0,1,.92,1,3.31,3.31,0,0,1,.33,1.54v3.9H9.84V5.74a1.69,1.69,0,0,0-.4-1.22,1.37,1.37,0,0,0-1.08-.43,1.39,1.39,0,0,0-1.09.43,1.7,1.7,0,0,0-.41,1.22V9.41H5.18V.53H6.86V3.59a2.19,2.19,0,0,1,.87-.68,2.93,2.93,0,0,1,1.2-.25A2.69,2.69,0,0,1,10.27,3Z"/><path class="cls-1" d="M19.25,6.59H14.39a1.7,1.7,0,0,0,.5,1.13,1.56,1.56,0,0,0,1.09.4,1.37,1.37,0,0,0,1.34-.8h1.81A3,3,0,0,1,18,8.9a3.22,3.22,0,0,1-2,.62,3.51,3.51,0,0,1-1.72-.43,3,3,0,0,1-1.19-1.21,3.74,3.74,0,0,1-.43-1.8,3.78,3.78,0,0,1,.42-1.81,3,3,0,0,1,1.18-1.2,3.77,3.77,0,0,1,3.44,0,2.82,2.82,0,0,1,1.16,1.16,3.45,3.45,0,0,1,.42,1.72A4.19,4.19,0,0,1,19.25,6.59ZM17.56,5.46a1.36,1.36,0,0,0-.47-1A1.68,1.68,0,0,0,16,4a1.56,1.56,0,0,0-1.05.38,1.65,1.65,0,0,0-.52,1Z"/><path class="cls-1" d="M26.42,4.14H25.26V9.41h-1.7V4.14H22.8V2.76h.76V2.42a2.23,2.23,0,0,1,.69-1.8,3.17,3.17,0,0,1,2.1-.54V1.5a1.25,1.25,0,0,0-.85.2,1,1,0,0,0-.24.78v.28h1.16Z"/><path class="cls-1" d="M27.49,4.27a2.87,2.87,0,0,1,2.63-1.62,2.67,2.67,0,0,1,2.2,1.06v-1H34V9.41H32.32v-1a2.53,2.53,0,0,1-.9.77,2.78,2.78,0,0,1-1.31.31,2.82,2.82,0,0,1-1.53-.44,2.92,2.92,0,0,1-1.09-1.21,3.92,3.92,0,0,1-.41-1.81A3.84,3.84,0,0,1,27.49,4.27ZM32.08,5a1.75,1.75,0,0,0-.65-.67,1.81,1.81,0,0,0-.88-.23,1.61,1.61,0,0,0-.86.23,1.63,1.63,0,0,0-.64.66,2,2,0,0,0-.25,1,2.09,2.09,0,0,0,.25,1.05,1.78,1.78,0,0,0,.64.69,1.67,1.67,0,0,0,.86.24,1.81,1.81,0,0,0,.88-.23,1.71,1.71,0,0,0,.65-.68,2.14,2.14,0,0,0,.24-1A2.2,2.2,0,0,0,32.08,5Z"/><path class="cls-1" d="M38.23,3a2.71,2.71,0,0,1,1.3-.3,2.9,2.9,0,0,1,1.54.42,3,3,0,0,1,1.09,1.2,3.78,3.78,0,0,1,.4,1.79,3.92,3.92,0,0,1-.4,1.81,3,3,0,0,1-1.09,1.21,2.82,2.82,0,0,1-1.54.44,2.68,2.68,0,0,1-1.3-.3,2.49,2.49,0,0,1-.9-.76v.95H35.65V.53h1.68v3.2A2.45,2.45,0,0,1,38.23,3ZM40.6,5A1.65,1.65,0,0,0,40,4.36a1.62,1.62,0,0,0-.87-.23,1.7,1.7,0,0,0-1.5.91,2.05,2.05,0,0,0-.25,1,2.09,2.09,0,0,0,.25,1,1.77,1.77,0,0,0,.65.68,1.69,1.69,0,0,0,.85.23A1.63,1.63,0,0,0,40,7.8a1.77,1.77,0,0,0,.65-.68,2.1,2.1,0,0,0,.25-1.06A2,2,0,0,0,40.6,5Z"/><path class="cls-1" d="M46.31,3a2.38,2.38,0,0,1,1.2-.3V4.43h-.45a1.7,1.7,0,0,0-1.19.37,1.71,1.71,0,0,0-.4,1.3V9.41H43.79V2.76h1.68v1A2.38,2.38,0,0,1,46.31,3Z"/><path class="cls-1" d="M48.75,1.69A.94.94,0,0,1,48.46,1a.91.91,0,0,1,.29-.7A1,1,0,0,1,49.49,0a1,1,0,0,1,.74.28,1,1,0,0,1,.29.7,1,1,0,0,1-.29.71,1.08,1.08,0,0,1-.74.28A1,1,0,0,1,48.75,1.69Zm1.56,1.07V9.41H48.64V2.76Z"/><path class="cls-1" d="M52,4.28a3,3,0,0,1,1.16-1.2,3.34,3.34,0,0,1,1.71-.43,3.28,3.28,0,0,1,2,.62A3,3,0,0,1,58,5H56.15a1.34,1.34,0,0,0-.49-.67,1.52,1.52,0,0,0-2,.27,2.31,2.31,0,0,0-.42,1.48,2.26,2.26,0,0,0,.42,1.47,1.39,1.39,0,0,0,1.14.53,1.28,1.28,0,0,0,1.33-.92H58a3.06,3.06,0,0,1-1.09,1.72,3.27,3.27,0,0,1-2,.64,3.44,3.44,0,0,1-1.71-.43A3,3,0,0,1,52,7.89a3.75,3.75,0,0,1-.42-1.81A3.71,3.71,0,0,1,52,4.28Z"/><path class="cls-1" d="M65.1,4.14H63.93V9.41h-1.7V4.14h-.76V2.76h.76V2.42a2.2,2.2,0,0,1,.7-1.8A3.14,3.14,0,0,1,65,.08V1.5a1.28,1.28,0,0,0-.86.2,1,1,0,0,0-.24.78v.28H65.1Z"/><path class="cls-1" d="M66.16,4.27a3,3,0,0,1,1.09-1.2,2.92,2.92,0,0,1,1.54-.42A2.72,2.72,0,0,1,70.1,3a2.55,2.55,0,0,1,.89.76v-1h1.69V9.41H71v-1a2.41,2.41,0,0,1-.89.77,2.92,2.92,0,0,1-2.85-.13,3,3,0,0,1-1.09-1.21,3.92,3.92,0,0,1-.4-1.81A3.84,3.84,0,0,1,66.16,4.27ZM70.75,5a1.68,1.68,0,0,0-.65-.67,1.77,1.77,0,0,0-.87-.23,1.67,1.67,0,0,0-.87.23,1.7,1.7,0,0,0-.64.66,2.13,2.13,0,0,0-.24,1,2.2,2.2,0,0,0,.24,1.05,1.73,1.73,0,0,0,.65.69,1.64,1.64,0,0,0,.86.24,1.77,1.77,0,0,0,.87-.23,1.64,1.64,0,0,0,.65-.68,2.14,2.14,0,0,0,.24-1A2.2,2.2,0,0,0,70.75,5Z"/><path class="cls-1" d="M74.32,4.28a2.92,2.92,0,0,1,1.16-1.2,3.64,3.64,0,0,1,3.75.19A3,3,0,0,1,80.32,5H78.5A1.27,1.27,0,0,0,78,4.33a1.53,1.53,0,0,0-2,.27,2.31,2.31,0,0,0-.42,1.48A2.26,2.26,0,0,0,76,7.55a1.39,1.39,0,0,0,1.14.53,1.27,1.27,0,0,0,1.33-.92h1.82a3.07,3.07,0,0,1-1.1,1.72,3.23,3.23,0,0,1-2,.64,3.41,3.41,0,0,1-1.7-.43,2.92,2.92,0,0,1-1.16-1.2,3.75,3.75,0,0,1-.42-1.81A3.71,3.71,0,0,1,74.32,4.28Z"/><path class="cls-1" d="M83.51,4.14V7.36a.62.62,0,0,0,.16.48.8.8,0,0,0,.55.15H85V9.41H83.94a1.86,1.86,0,0,1-2.13-2.07V4.14H81V2.76h.79V1.12h1.7V2.76H85V4.14Z"/><path class="cls-1" d="M87.43,9.09a3,3,0,0,1-1.2-1.21,3.53,3.53,0,0,1-.44-1.8,3.54,3.54,0,0,1,.45-1.8,3.09,3.09,0,0,1,1.23-1.2,3.74,3.74,0,0,1,3.48,0,3.09,3.09,0,0,1,1.23,1.2,3.54,3.54,0,0,1,.45,1.8,3.54,3.54,0,0,1-.46,1.8,3.23,3.23,0,0,1-1.25,1.21,3.7,3.7,0,0,1-1.76.43A3.55,3.55,0,0,1,87.43,9.09ZM90,7.83a1.6,1.6,0,0,0,.64-.67,2.21,2.21,0,0,0,.24-1.08,2,2,0,0,0-.5-1.45,1.64,1.64,0,0,0-1.22-.51,1.58,1.58,0,0,0-1.2.51,2,2,0,0,0-.49,1.45A2,2,0,0,0,88,7.54a1.54,1.54,0,0,0,1.19.51A1.75,1.75,0,0,0,90,7.83Z"/><path class="cls-1" d="M96.39,3a2.34,2.34,0,0,1,1.19-.3V4.43h-.44a1.71,1.71,0,0,0-1.2.37,1.76,1.76,0,0,0-.4,1.3V9.41H93.86V2.76h1.68v1A2.41,2.41,0,0,1,96.39,3Z"/><path class="cls-1" d="M105.07,2.76,101,12.55H99.17l1.44-3.31L97.94,2.76h1.89l1.71,4.64,1.74-4.64Z"/></g></g></svg>