<svg xmlns="http://www.w3.org/2000/svg" viewBox="0 0 103.69 12.37"><defs><style>.cls-1{fill:#231815;}</style></defs><title>자산 2</title><g id="레이어_2" data-name="레이어 2"><g id="레이어_1-2" data-name="레이어 1"><path class="cls-1" d="M2.16,3.77V7.43A.72.72,0,0,0,2.33,8a.88.88,0,0,0,.6.16h.84V9.26H2.69a2.08,2.08,0,0,1-1.42-.43,1.76,1.76,0,0,1-.49-1.4V3.77H0V2.65H.78V1H2.16V2.65H3.77V3.77Z"/><path class="cls-1" d="M9.8,2.87a2.21,2.21,0,0,1,.93,1,3.15,3.15,0,0,1,.35,1.53v3.9H9.72V5.57a1.93,1.93,0,0,0-.44-1.36,1.58,1.58,0,0,0-1.22-.48,1.57,1.57,0,0,0-1.21.48A1.89,1.89,0,0,0,6.4,5.57V9.26H5V.38H6.4v3a2.23,2.23,0,0,1,.88-.65,2.94,2.94,0,0,1,1.17-.23A2.75,2.75,0,0,1,9.8,2.87Z"/><path class="cls-1" d="M18.83,6.47h-5a1.83,1.83,0,0,0,.58,1.27,1.88,1.88,0,0,0,1.3.48,1.6,1.6,0,0,0,1.56-.92H18.7a3,3,0,0,1-1.09,1.49,3.16,3.16,0,0,1-1.95.58A3.43,3.43,0,0,1,14,9a3.07,3.07,0,0,1-1.17-1.2A3.63,3.63,0,0,1,12.36,6a3.78,3.78,0,0,1,.41-1.79A2.94,2.94,0,0,1,13.94,3a3.45,3.45,0,0,1,1.72-.42A3.41,3.41,0,0,1,17.33,3,2.87,2.87,0,0,1,18.47,4.1a3.48,3.48,0,0,1,.41,1.7A4.57,4.57,0,0,1,18.83,6.47ZM17.45,5.36a1.58,1.58,0,0,0-.54-1.21A2,2,0,0,0,15.6,3.7a1.75,1.75,0,0,0-1.21.45,1.83,1.83,0,0,0-.6,1.21Z"/><path class="cls-1" d="M26.11,3.77H24.89V9.26H23.51V3.77h-.78V2.65h.78V2.18a2.09,2.09,0,0,1,.6-1.66A2.89,2.89,0,0,1,26,0V1.14a1.33,1.33,0,0,0-.88.23,1.08,1.08,0,0,0-.25.81v.47h1.22Z"/><path class="cls-1" d="M27.28,4.16A3,3,0,0,1,28.41,3,3.07,3.07,0,0,1,30,2.54a2.93,2.93,0,0,1,1.36.31,2.72,2.72,0,0,1,.93.76v-1h1.38V9.26H32.28v-1a2.75,2.75,0,0,1-1,.78,3.07,3.07,0,0,1-2.93-.13,3.15,3.15,0,0,1-1.12-1.22,3.83,3.83,0,0,1-.41-1.78A3.76,3.76,0,0,1,27.28,4.16Zm4.72.6A2,2,0,0,0,31.26,4a1.88,1.88,0,0,0-1-.27,2,2,0,0,0-1,.26,1.94,1.94,0,0,0-.74.76,2.42,2.42,0,0,0-.28,1.18,2.59,2.59,0,0,0,.28,1.2,2,2,0,0,0,.75.78,1.94,1.94,0,0,0,2,0A2,2,0,0,0,32,7.15,2.42,2.42,0,0,0,32.28,6,2.41,2.41,0,0,0,32,4.76Z"/><path class="cls-1" d="M37.78,2.85A3.16,3.16,0,0,1,40.72,3a2.93,2.93,0,0,1,1.11,1.2,3.73,3.73,0,0,1,.41,1.77,3.83,3.83,0,0,1-.41,1.78,3,3,0,0,1-1.12,1.22,2.9,2.9,0,0,1-1.58.44,3,3,0,0,1-1.36-.3,2.49,2.49,0,0,1-.94-.77v1H35.46V.38h1.37V3.64A2.57,2.57,0,0,1,37.78,2.85Zm2.79,1.9A1.89,1.89,0,0,0,39.82,4a2,2,0,0,0-1-.26,1.93,1.93,0,0,0-1,.27,2,2,0,0,0-.74.76A2.41,2.41,0,0,0,36.83,6a2.42,2.42,0,0,0,.28,1.2,2,2,0,0,0,.74.77,1.92,1.92,0,0,0,1,.26,1.94,1.94,0,0,0,1-.27,2,2,0,0,0,.75-.78,2.59,2.59,0,0,0,.28-1.2A2.42,2.42,0,0,0,40.57,4.75Z"/><path class="cls-1" d="M45.76,2.83a2.34,2.34,0,0,1,1.18-.29V4H46.6a1.66,1.66,0,0,0-1.22.41A1.92,1.92,0,0,0,45,5.78V9.26H43.6V2.65H45v1A2.14,2.14,0,0,1,45.76,2.83Z"/><path class="cls-1" d="M48.28,1.52A.82.82,0,0,1,48,.9a.82.82,0,0,1,.26-.62A.82.82,0,0,1,48.9,0a.83.83,0,0,1,.61.26.81.81,0,0,1,.25.62.81.81,0,0,1-.25.62.83.83,0,0,1-.61.26A.82.82,0,0,1,48.28,1.52Zm1.29,1.13V9.26H48.2V2.65Z"/><path class="cls-1" d="M51.33,4.16A2.89,2.89,0,0,1,52.48,3a3.65,3.65,0,0,1,3.66.15A2.78,2.78,0,0,1,57.2,4.74H55.73A1.56,1.56,0,0,0,55.15,4a1.7,1.7,0,0,0-1-.27,1.64,1.64,0,0,0-1.34.59A2.53,2.53,0,0,0,52.32,6a2.56,2.56,0,0,0,.5,1.67,1.65,1.65,0,0,0,1.34.6,1.52,1.52,0,0,0,1.57-1H57.2a3,3,0,0,1-1.08,1.6,3.19,3.19,0,0,1-2,.59A3.27,3.27,0,0,1,52.48,9a3,3,0,0,1-1.15-1.2A3.73,3.73,0,0,1,50.92,6,3.67,3.67,0,0,1,51.33,4.16Z"/><path class="cls-1" d="M64.46,3.77H63.24V9.26H61.86V3.77h-.78V2.65h.78V2.18a2.09,2.09,0,0,1,.6-1.66A2.89,2.89,0,0,1,64.37,0V1.14a1.33,1.33,0,0,0-.88.23,1.08,1.08,0,0,0-.25.81v.47h1.22Z"/><path class="cls-1" d="M65.63,4.16A3,3,0,0,1,66.76,3a3.07,3.07,0,0,1,1.58-.43,2.93,2.93,0,0,1,1.36.31,2.72,2.72,0,0,1,.93.76v-1H72V9.26H70.63v-1a2.75,2.75,0,0,1-.95.78,3.07,3.07,0,0,1-2.93-.13,3.15,3.15,0,0,1-1.12-1.22,3.83,3.83,0,0,1-.41-1.78A3.76,3.76,0,0,1,65.63,4.16Zm4.72.6A2,2,0,0,0,69.61,4a1.88,1.88,0,0,0-1-.27,2,2,0,0,0-1,.26,1.94,1.94,0,0,0-.74.76,2.42,2.42,0,0,0-.28,1.18,2.59,2.59,0,0,0,.28,1.2,2,2,0,0,0,.75.78,1.9,1.9,0,0,0,1,.27,1.87,1.87,0,0,0,1-.26,2,2,0,0,0,.74-.77A2.42,2.42,0,0,0,70.63,6,2.41,2.41,0,0,0,70.35,4.76Z"/><path class="cls-1" d="M73.77,4.16A2.93,2.93,0,0,1,74.91,3a3.67,3.67,0,0,1,3.67.15,2.83,2.83,0,0,1,1.06,1.63H78.17A1.62,1.62,0,0,0,77.59,4a1.73,1.73,0,0,0-1-.27,1.62,1.62,0,0,0-1.33.59A2.48,2.48,0,0,0,74.76,6a2.5,2.5,0,0,0,.5,1.67,1.63,1.63,0,0,0,1.33.6,1.53,1.53,0,0,0,1.58-1h1.47a3,3,0,0,1-1.08,1.6,3.22,3.22,0,0,1-2,.59A3.33,3.33,0,0,1,74.91,9a3.06,3.06,0,0,1-1.14-1.2A3.74,3.74,0,0,1,73.35,6,3.67,3.67,0,0,1,73.77,4.16Z"/><path class="cls-1" d="M82.61,3.77V7.43a.68.68,0,0,0,.17.53.85.85,0,0,0,.59.16h.84V9.26H83.14a2.08,2.08,0,0,1-1.42-.43,1.76,1.76,0,0,1-.49-1.4V3.77h-.78V2.65h.78V1h1.38V2.65h1.6V3.77Z"/><path class="cls-1" d="M86.65,9a3.19,3.19,0,0,1-1.19-1.2A3.63,3.63,0,0,1,85,6a3.53,3.53,0,0,1,.45-1.79A3,3,0,0,1,86.69,3a3.49,3.49,0,0,1,1.71-.42A3.53,3.53,0,0,1,90.12,3a3.1,3.1,0,0,1,1.21,1.2A3.52,3.52,0,0,1,91.77,6a3.53,3.53,0,0,1-.45,1.79A3.27,3.27,0,0,1,90.08,9a3.67,3.67,0,0,1-1.74.42A3.42,3.42,0,0,1,86.65,9Zm2.68-1a1.93,1.93,0,0,0,.75-.75A2.49,2.49,0,0,0,90.37,6a2.45,2.45,0,0,0-.28-1.22A1.82,1.82,0,0,0,89.36,4a2,2,0,0,0-2,0,1.78,1.78,0,0,0-.71.75A2.56,2.56,0,0,0,86.42,6,2.3,2.3,0,0,0,87,7.6a1.78,1.78,0,0,0,1.37.58A2,2,0,0,0,89.33,7.93Z"/><path class="cls-1" d="M95.3,2.83a2.32,2.32,0,0,1,1.18-.29V4h-.35a1.7,1.7,0,0,0-1.22.41,2,2,0,0,0-.41,1.41V9.26H93.13V2.65H94.5v1A2.14,2.14,0,0,1,95.3,2.83Z"/><path class="cls-1" d="M103.69,2.65l-4.06,9.72H98.22l1.34-3.21L97,2.65h1.52l1.86,5,1.93-5Z"/></g></g></svg>